<?xml version="1.0" encoding="UTF-8" standalone="no"?>
<svg
   width="14.000781"
   height="14.000684"
   viewBox="0 0 1.43368 1.43367"
   preserveAspectRatio="xMinYMin meet"
   version="1.1"
   id="svg407"
   sodipodi:docname="git-icon.svg"
   inkscape:version="1.1.2 (b8e25be833, 2022-02-05)"
   xmlns:inkscape="http://www.inkscape.org/namespaces/inkscape"
   xmlns:sodipodi="http://sodipodi.sourceforge.net/DTD/sodipodi-0.dtd"
   xmlns="http://www.w3.org/2000/svg"
   xmlns:svg="http://www.w3.org/2000/svg">
  <defs
     id="defs411" />
  <sodipodi:namedview
     id="namedview409"
     pagecolor="#ffffff"
     bordercolor="#666666"
     borderopacity="1.0"
     inkscape:pageshadow="2"
     inkscape:pageopacity="0.0"
     inkscape:pagecheckerboard="0"
     showgrid="false"
     inkscape:zoom="14.481547"
     inkscape:cx="2.3478155"
     inkscape:cy="11.393811"
     inkscape:window-width="1366"
     inkscape:window-height="705"
     inkscape:window-x="-8"
     inkscape:window-y="-8"
     inkscape:window-maximized="1"
     inkscape:current-layer="svg407"
     width="14px"
     fit-margin-top="0"
     fit-margin-left="0"
     fit-margin-right="0"
     fit-margin-bottom="0" />
  <path
     d="m 1.406645,0.652975 -0.62594,-0.6259 c -0.036,-0.0361 -0.0945,-0.0361 -0.13056,0 l -0.12998,0.12998 0.16489,0.16488 c 0.0383,-0.0129 0.0822,-0.004 0.11279,0.0263 0.0307,0.0307 0.0393,0.0751 0.0261,0.1135 l 0.1589,0.1589 c 0.0384,-0.0132 0.0828,-0.005 0.11351,0.0261 0.0429,0.0429 0.0429,0.11243 0,0.15535 -0.0429,0.0429 -0.11245,0.0429 -0.1554,0 -0.0323,-0.0323 -0.0403,-0.0797 -0.0239,-0.11948 l -0.14819,-0.14819 -2e-5,0.38997 a 0.11099406,0.11099406 0 0 1 0.029,0.0208 c 0.0429,0.0429 0.0429,0.11243 0,0.15538 -0.0429,0.0429 -0.11248,0.0429 -0.15534,0 -0.0429,-0.0429 -0.0429,-0.11248 0,-0.15538 a 0.11006444,0.11006444 0 0 1 0.036,-0.024 v -0.39361 a 0.10851881,0.10851881 0 0 1 -0.036,-0.024 c -0.0325,-0.0325 -0.0403,-0.0802 -0.0237,-0.1201 l -0.16254,-0.16256 -0.42919,0.42917 c -0.0361,0.0361 -0.0361,0.0945 0,0.1306 l 0.62594,0.62591 c 0.036,0.0361 0.0945,0.0361 0.13057,0 l 0.62302,-0.623 c 0.0361,-0.0361 0.0361,-0.0946 0,-0.13062"
     fill="#de4c36"
     id="path405"
     style="stroke-width:0.0056001" />
</svg>
